<svg width="4166" height="464" viewBox="0 0 4166 464" fill="none" xmlns="http://www.w3.org/2000/svg">
<path d="M166.831 0.723633C74.037 108.772 0.555176 215.154 0.555176 303.528C0.555176 391.902 74.9791 463.536 166.831 463.536C258.684 463.536 333.108 391.902 333.108 303.528C333.108 215.154 259.626 108.917 166.831 0.723633Z" fill="#206BC4"/>
<path opacity="0.2" d="M166.831 0.723633C74.037 108.772 0.555176 215.154 0.555176 303.528C0.555176 391.902 74.9791 463.536 166.831 463.536C258.684 463.536 333.108 391.902 333.108 303.528C333.108 215.154 259.626 108.917 166.831 0.723633Z" fill="white"/>
<path opacity="0.2" d="M155.961 79.9308C139.439 99.6057 133.786 126.708 132.554 152.398C130.931 174.629 133.752 196.961 140.852 218.09C152.229 249.178 179.259 276.571 214.189 277.078C222.451 277.231 230.625 275.364 238 271.638C245.376 267.912 251.73 262.441 256.51 255.7C262.87 245.145 266.321 233.093 266.51 220.771C269.083 178.196 252.777 136.165 228.718 100.91C213.355 78.3728 183.97 50.183 158.969 76.4161C158.026 77.8292 157.048 78.9163 155.961 79.9308Z" fill="white"/>
<path opacity="0.1" d="M306.585 390.272C280.641 417.302 240.784 437.774 180.274 429.259C34.1076 408.642 4.86696 252.765 39.9411 175.37C15.3023 220.735 0.555176 263.925 0.555176 303.529C0.555176 391.902 74.9791 463.536 166.831 463.536C194.347 463.719 221.486 457.133 245.857 444.356C270.228 431.58 291.083 413.007 306.585 390.272Z" fill="black"/>
<path d="M591.6 330.04C590.88 333.64 588.72 336.76 585.12 339.4C581.76 341.8 576.96 343 570.72 343C565.44 343 561.24 341.56 558.12 338.68C555.24 335.8 553.68 332.8 553.44 329.68C554.88 319.6 555.6 304.48 555.6 284.32C555.6 272.32 554.88 253.84 553.44 228.88C551.76 205.36 550.92 184.48 550.92 166.24C550.92 156.4 551.4 146.32 552.36 136C552.36 132.64 554.28 129.04 558.12 125.2C562.2 121.36 567.72 118.96 574.68 118C597.48 115.6 625.44 114.4 658.56 114.4H670.08C678.72 114.4 687.12 115.96 695.28 119.08C703.68 122.2 707.88 127.6 707.88 135.28C707.88 140.32 706.68 144.28 704.28 147.16C701.88 150.04 697.44 151.48 690.96 151.48C687.84 151.48 684.24 151.24 680.16 150.76C676.08 150.28 673.2 149.92 671.52 149.68C662.4 148.24 655.32 147.52 650.28 147.52C622.44 147.52 601.44 149.44 587.28 153.28C587.28 161.2 587.52 174.04 588 191.8L588.36 214.84C600.84 214.84 612 214.36 621.84 213.4C631.68 212.2 637.32 211.48 638.76 211.24C651.24 209.8 659.52 209.08 663.6 209.08C669.36 209.08 674.16 210.4 678 213.04C682.08 215.44 684.12 219.28 684.12 224.56C684.12 236.56 675.72 242.56 658.92 242.56C654.84 242.56 651.24 242.68 648.12 242.92C645 243.16 642.36 243.4 640.2 243.64C631.56 244.6 624.72 245.08 619.68 245.08C608.64 245.08 599.28 245.44 591.6 246.16C591.6 255.04 591.96 264.4 592.68 274.24C592.68 277.36 592.8 282.16 593.04 288.64C593.52 295.12 593.76 301 593.76 306.28C593.76 310.84 593.64 315.04 593.4 318.88C593.16 322.72 592.56 326.44 591.6 330.04ZM718.646 221.68C716.726 221.68 714.926 220.96 713.246 219.52C711.806 217.84 711.086 215.92 711.086 213.76C711.086 208.24 713.486 203.08 718.286 198.28C719.726 197.56 722.606 196.36 726.926 194.68C731.246 193 735.086 192.16 738.446 192.16C747.566 192.16 755.006 194.68 760.766 199.72C766.526 204.52 769.406 211.48 769.406 220.6C769.406 223.24 768.926 228.88 767.966 237.52C767.006 247.6 766.526 255.4 766.526 260.92C766.526 277.72 768.806 291.28 773.366 301.6C775.046 304.96 777.686 307.6 781.286 309.52C784.886 311.44 788.126 312.4 791.006 312.4C797.966 312.4 803.606 311.2 807.926 308.8C812.246 306.4 816.926 302.56 821.966 297.28C827.006 292 830.246 286 831.686 279.28C833.366 272.56 834.566 263.32 835.286 251.56C835.766 243.88 836.246 238.24 836.726 234.64C837.926 223.12 838.526 213.28 838.526 205.12C838.526 199.84 839.966 195.52 842.846 192.16C845.726 188.56 849.686 186.76 854.726 186.76C857.606 186.76 860.846 187.72 864.446 189.64C868.286 191.32 870.806 193.36 872.006 195.76C873.446 198.16 874.166 202.12 874.166 207.64C874.166 210.52 873.806 213.28 873.086 215.92C871.406 221.92 870.566 229.12 870.566 237.52L870.926 256.24C870.926 273.28 872.126 285.88 874.526 294.04C875.726 297.88 877.406 301.84 879.566 305.92C881.726 309.76 883.766 313 885.686 315.64C890.486 320.92 893.606 324.64 895.046 326.8C896.486 328.72 897.206 330.64 897.206 332.56C897.206 335.44 895.766 338.2 892.886 340.84C890.246 343.24 887.366 344.44 884.246 344.44C875.366 344.44 867.686 341.44 861.206 335.44C854.726 329.44 849.926 321.64 846.806 312.04C838.646 321.4 831.086 328.96 824.126 334.72C819.326 338.08 813.446 340.6 806.486 342.28C799.526 343.72 792.566 344.44 785.606 344.44C776.246 344.44 766.766 340.6 757.166 332.92C747.566 325.24 741.086 316.36 737.726 306.28C737.486 305.8 736.766 303.88 735.566 300.52C734.606 297.16 734.126 292.12 734.126 285.4C734.126 276.52 734.606 265.36 735.566 251.92C736.286 243.28 736.646 235.36 736.646 228.16C736.646 226 735.806 224.2 734.126 222.76C732.686 221.32 731.006 220.6 729.086 220.6C727.646 220.6 725.966 220.84 724.046 221.32C722.366 221.56 720.566 221.68 718.646 221.68ZM920.871 260.56C920.871 245.92 924.111 233.8 930.591 224.2C937.071 214.36 946.071 205.12 957.591 196.48C960.951 194.08 966.591 192.04 974.511 190.36C982.431 188.44 989.391 187.48 995.391 187.48C1002.59 187.48 1010.15 189.04 1018.07 192.16C1026.23 195.04 1032.83 198.4 1037.87 202.24C1046.75 208.72 1052.87 216.28 1056.23 224.92C1059.59 233.32 1061.27 243.4 1061.27 255.16C1061.27 260.2 1058.39 265.12 1052.63 269.92C1047.11 274.48 1041.11 276.76 1034.63 276.76L1020.95 276.4C1013.99 276.4 1004.03 276.64 991.071 277.12L983.511 277.48C978.231 277.96 974.271 278.2 971.631 278.2C967.791 278.2 962.511 277.72 955.791 276.76C956.751 288.04 960.951 296.92 968.391 303.4C975.831 309.64 983.871 312.76 992.511 312.76C1007.63 312.76 1018.19 309.76 1024.19 303.76C1029.23 300.16 1032.59 297.88 1034.27 296.92C1035.95 295.96 1038.59 295.48 1042.19 295.48C1046.03 295.48 1049.39 297.28 1052.27 300.88C1055.15 304.48 1056.59 308.08 1056.59 311.68C1056.59 315.76 1054.07 319.96 1049.03 324.28C1044.23 328.36 1037.63 332.68 1029.23 337.24C1024.67 339.16 1018.43 340.84 1010.51 342.28C1002.59 343.72 995.991 344.44 990.711 344.44C982.311 344.44 972.951 342.04 962.631 337.24C952.311 332.2 944.631 326.68 939.591 320.68C934.551 314.68 930.111 306.16 926.271 295.12C922.671 284.08 920.871 272.56 920.871 260.56ZM992.511 250.84C1009.55 250.84 1022.03 250.24 1029.95 249.04C1029.47 242.08 1027.31 236.44 1023.47 232.12C1019.63 227.56 1014.35 223.72 1007.63 220.6C1005.47 219.64 1003.55 218.92 1001.87 218.44C1000.19 217.96 998.271 217.72 996.111 217.72C985.071 217.72 975.711 220.72 968.031 226.72C960.591 232.72 956.151 240.4 954.711 249.76C966.711 250.48 979.311 250.84 992.511 250.84ZM1135.65 287.2C1135.65 296.32 1136.97 303.4 1139.61 308.44C1142.49 313.24 1146.09 315.64 1150.41 315.64C1152.81 315.64 1155.09 315.52 1157.25 315.28C1159.41 314.8 1161.57 314.56 1163.73 314.56C1166.13 314.56 1168.17 315.76 1169.85 318.16C1171.77 320.56 1172.73 323.2 1172.73 326.08C1172.73 331.84 1169.97 336.4 1164.45 339.76C1159.17 342.88 1151.97 344.44 1142.85 344.44C1136.37 344.44 1129.77 342.52 1123.05 338.68C1116.57 334.6 1111.17 328.36 1106.85 319.96C1102.53 311.32 1100.37 300.64 1100.37 287.92C1100.37 260.56 1100.85 237.4 1101.81 218.44C1103.01 195.88 1103.61 167.44 1103.61 133.12C1103.61 122.32 1104.21 114.76 1105.41 110.44C1106.85 107.08 1109.13 104.56 1112.25 102.88C1115.61 100.96 1119.09 100 1122.69 100C1126.29 100 1129.41 100.6 1132.05 101.8C1134.93 103 1136.85 104.92 1137.81 107.56C1138.77 110.44 1139.37 113.32 1139.61 116.2C1140.09 118.84 1140.33 122.68 1140.33 127.72C1140.33 137.56 1139.97 147.04 1139.25 156.16C1138.77 167.2 1138.53 175.24 1138.53 180.28C1136.61 222.52 1135.65 258.16 1135.65 287.2ZM1520.06 133.48C1520.06 147.88 1519.58 168.04 1518.62 193.96C1518.38 200.2 1518.14 207.76 1517.9 216.64C1517.66 225.28 1517.54 235.36 1517.54 246.88C1517.54 284.56 1519.58 311.56 1523.66 327.88C1523.42 333.88 1521.14 338.2 1516.82 340.84C1512.5 343.24 1508.06 344.44 1503.5 344.44C1494.14 344.44 1487.9 341.08 1484.78 334.36C1481.9 327.4 1480.46 317.68 1480.46 305.2C1480.46 258.88 1481.18 216.04 1482.62 176.68C1478.06 185.8 1473.74 195.88 1469.66 206.92C1465.82 217.72 1460.66 232.84 1454.18 252.28C1447.46 273.4 1441.7 290.08 1436.9 302.32C1432.34 314.56 1427.54 324.04 1422.5 330.76C1421.06 331.48 1418.18 332.92 1413.86 335.08C1409.78 337 1406.18 337.96 1403.06 337.96C1398.02 337.96 1394.42 337.12 1392.26 335.44C1390.1 333.76 1388.18 331.36 1386.5 328.24C1384.82 325.12 1383.38 322.6 1382.18 320.68C1378.34 314.92 1373.42 305.44 1367.42 292.24C1361.42 279.04 1355.9 265.24 1350.86 250.84C1348.94 245.8 1347.14 241 1345.46 236.44C1344.02 231.64 1342.58 227.2 1341.14 223.12C1338.26 214.48 1335.38 206.44 1332.5 199C1329.86 191.32 1327.58 185.92 1325.66 182.8C1325.66 195.52 1325.3 208.24 1324.58 220.96C1324.1 236.32 1323.86 247.36 1323.86 254.08C1323.86 258.88 1324.1 265.36 1324.58 273.52C1326.02 298.48 1326.74 314.92 1326.74 322.84C1326.74 328.6 1325.3 333.52 1322.42 337.6C1319.54 341.68 1315.1 343.72 1309.1 343.72C1302.62 343.72 1297.34 342.52 1293.26 340.12C1289.42 337.48 1287.38 333.64 1287.14 328.6C1287.38 324.52 1287.5 317.92 1287.5 308.8C1287.5 290.32 1286.78 260.92 1285.34 220.6L1284.98 207.64C1284.98 198.52 1285.46 185.56 1286.42 168.76C1286.66 164.68 1286.9 159.88 1287.14 154.36C1287.38 148.84 1287.5 142.84 1287.5 136.36C1287.5 128.92 1290.02 123.52 1295.06 120.16C1300.1 116.56 1306.58 114.76 1314.5 114.76C1319.3 114.76 1324.1 115.96 1328.9 118.36C1333.94 120.76 1337.66 124.24 1340.06 128.8C1344.86 138.64 1349.66 150.28 1354.46 163.72C1359.26 176.92 1365.74 195.76 1373.9 220.24C1381.58 243.52 1387.7 261.28 1392.26 273.52C1396.82 285.52 1400.66 293.68 1403.78 298L1412.06 273.52C1439.18 190.72 1457.42 141.76 1466.78 126.64C1468.94 123.76 1472.66 121.24 1477.94 119.08C1483.46 116.68 1488.62 115.48 1493.42 115.48C1497.02 115.48 1502.3 117.76 1509.26 122.32C1516.46 126.64 1520.06 130.36 1520.06 133.48ZM1710.37 227.44C1712.29 230.8 1713.85 235.72 1715.05 242.2C1716.25 248.44 1716.85 254.08 1716.85 259.12C1716.85 265.84 1715.77 274.24 1713.61 284.32C1711.45 294.16 1709.65 300.76 1708.21 304.12C1695.25 331 1670.29 344.44 1633.33 344.44C1621.57 344.44 1610.05 340.6 1598.77 332.92C1587.49 325 1579.45 315.76 1574.65 305.2L1572.13 298C1571.89 297.04 1570.57 293.44 1568.17 287.2C1566.01 280.72 1564.93 275.8 1564.93 272.44C1564.93 262.6 1567.33 251.2 1572.13 238.24C1576.93 225.28 1582.45 214.96 1588.69 207.28C1592.77 201.76 1600.57 197.08 1612.09 193.24C1623.61 189.16 1633.81 187.12 1642.69 187.12C1659.25 187.12 1672.57 190.24 1682.65 196.48C1692.97 202.72 1702.21 213.04 1710.37 227.44ZM1677.25 285.4C1678.21 283.72 1679.05 280.72 1679.77 276.4C1680.49 272.08 1680.85 267.04 1680.85 261.28C1680.85 254.32 1679.53 247.48 1676.89 240.76C1674.49 234.04 1670.89 228.28 1666.09 223.48C1665.85 223 1665.01 222.28 1663.57 221.32C1662.13 220.12 1659.85 219.04 1656.73 218.08C1653.61 216.88 1649.65 216.28 1644.85 216.28C1635.49 216.28 1627.57 219.04 1621.09 224.56C1614.61 230.08 1609.69 236.92 1606.33 245.08C1603.21 253.24 1601.65 261.28 1601.65 269.2C1601.65 271.36 1602.37 275.8 1603.81 282.52C1605.25 289.24 1606.33 293.56 1607.05 295.48C1608.97 298.84 1612.69 302.8 1618.21 307.36C1623.73 311.68 1629.97 313.84 1636.93 313.84C1647.73 313.84 1656.13 311.32 1662.13 306.28C1668.37 301.24 1673.41 294.28 1677.25 285.4ZM1748.47 216.28C1746.55 214.84 1744.99 213.4 1743.79 211.96C1742.59 210.28 1741.99 207.4 1741.99 203.32C1741.99 198.76 1743.55 195.28 1746.67 192.88C1750.03 190.24 1753.87 188.92 1758.19 188.92C1766.59 188.92 1773.79 191.08 1779.79 195.4C1786.03 199.72 1790.59 205.72 1793.47 213.4C1798.75 203.56 1805.47 196.84 1813.63 193.24C1821.79 189.4 1833.07 187.48 1847.47 187.48C1853.23 187.48 1859.11 189.28 1865.11 192.88C1871.35 196.24 1876.99 200.44 1882.03 205.48C1886.11 210.76 1889.59 217.36 1892.47 225.28C1895.35 232.96 1896.79 239.92 1896.79 246.16C1896.79 249.76 1896.55 255.64 1896.07 263.8C1895.59 272.44 1895.35 279.28 1895.35 284.32C1895.35 301.12 1898.59 311.44 1905.07 315.28C1906.03 315.76 1907.83 316.36 1910.47 317.08C1913.11 317.8 1915.03 318.52 1916.23 319.24C1917.67 319.96 1918.39 321.04 1918.39 322.48C1918.63 328.24 1916.47 333.04 1911.91 336.88C1907.59 340.48 1902.31 342.28 1896.07 342.28C1886.71 342.28 1879.39 339.76 1874.11 334.72C1868.83 329.68 1865.11 322 1862.95 311.68C1861.75 307.84 1861.15 302.2 1861.15 294.76C1861.15 290.68 1861.39 284.08 1861.87 274.96C1862.59 267.76 1862.95 260.08 1862.95 251.92C1862.95 243.52 1860.55 236.2 1855.75 229.96C1850.95 223.48 1844.35 220.24 1835.95 220.24C1830.91 220.24 1825.63 221.8 1820.11 224.92C1814.59 227.8 1810.75 231.4 1808.59 235.72C1804.99 243.16 1802.59 250.72 1801.39 258.4C1798.51 273.28 1797.07 287.56 1797.07 301.24C1797.07 304.6 1797.31 311.08 1797.79 320.68C1797.79 321.4 1797.79 323.2 1797.79 326.08C1797.79 328.72 1797.43 331.24 1796.71 333.64C1796.23 336.04 1795.27 338.2 1793.83 340.12C1792.87 341.08 1791.07 342.04 1788.43 343C1785.79 343.96 1783.51 344.44 1781.59 344.44C1778.23 344.44 1774.03 343 1768.99 340.12C1763.95 337.24 1760.95 334 1759.99 330.4L1759.63 325.36C1759.63 323.44 1759.87 320.56 1760.35 316.72C1763.23 299.92 1764.67 285.28 1764.67 272.8C1764.67 267.28 1764.55 263.08 1764.31 260.2L1763.95 243.64C1763.95 238.6 1762.51 233.8 1759.63 229.24C1756.75 224.44 1753.03 220.12 1748.47 216.28ZM1961.66 111.88C1970.06 112.6 1977.38 114.88 1983.62 118.72C1989.86 122.32 1992.98 127.84 1992.98 135.28C1992.98 140.8 1990.34 145.24 1985.06 148.6C1980.02 151.72 1973.9 153.28 1966.7 153.28C1959.74 153.28 1954.94 151.48 1952.3 147.88C1949.66 144.28 1948.34 140.56 1948.34 136.72C1948.34 129.52 1949.06 123.52 1950.5 118.72C1952.18 113.92 1955.9 111.64 1961.66 111.88ZM1990.46 271.36V281.8C1990.46 291.16 1990.7 300.04 1991.18 308.44C1991.9 316.6 1992.74 324.88 1993.7 333.28C1993.46 335.68 1991.66 338.2 1988.3 340.84C1984.94 343.24 1981.94 344.44 1979.3 344.44C1974.74 344.44 1970.06 343.6 1965.26 341.92C1960.7 340 1957.94 337.72 1956.98 335.08C1955.54 327.4 1954.82 320.56 1954.82 314.56C1954.82 294.88 1954.22 272.8 1953.02 248.32C1952.06 226.72 1951.58 211.6 1951.58 202.96C1951.58 198.64 1953.74 194.92 1958.06 191.8C1962.38 188.68 1966.94 187.12 1971.74 187.12C1978.7 187.12 1983.5 188.68 1986.14 191.8C1989.02 194.92 1990.46 199.84 1990.46 206.56V271.36ZM2036.13 218.44C2032.77 217.96 2030.01 216.52 2027.85 214.12C2025.93 211.72 2024.97 208.84 2024.97 205.48C2024.97 203.8 2025.33 202 2026.05 200.08C2027.01 198.16 2028.33 196.48 2030.01 195.04C2033.13 192.4 2037.33 189.88 2042.61 187.48C2048.13 185.32 2052.09 182.68 2054.49 179.56C2056.89 176.44 2058.09 170.56 2058.09 161.92C2058.09 158.32 2057.85 155.2 2057.37 152.56C2057.13 149.92 2057.01 147.88 2057.01 146.44C2057.01 141.16 2058.93 137.2 2062.77 134.56C2066.61 131.92 2071.05 130.6 2076.09 130.6C2082.33 130.6 2086.53 132.16 2088.69 135.28C2091.09 138.4 2092.29 144.16 2092.29 152.56C2092.29 160.72 2091.93 167.8 2091.21 173.8C2090.49 179.56 2088.93 184.72 2086.53 189.28C2089.89 189.28 2095.41 189.04 2103.09 188.56C2113.65 188.08 2120.97 187.84 2125.05 187.84C2129.13 187.84 2132.73 188.92 2135.85 191.08C2138.97 193 2140.53 195.76 2140.53 199.36C2140.53 204.4 2139.45 208.12 2137.29 210.52C2135.13 212.92 2132.01 214.48 2127.93 215.2C2118.09 217.84 2104.17 219.4 2086.17 219.88C2085.69 229.24 2085.45 239.44 2085.45 250.48C2085.45 268.96 2086.53 283.12 2088.69 292.96C2090.13 300.64 2092.53 306.28 2095.89 309.88C2099.49 313.24 2104.77 314.92 2111.73 314.92C2115.33 314.92 2118.21 314.44 2120.37 313.48C2122.77 312.52 2124.09 311.92 2124.33 311.68C2127.21 310 2129.85 309.16 2132.25 309.16C2135.61 309.16 2138.01 310.24 2139.45 312.4C2141.13 314.56 2141.97 317.44 2141.97 321.04C2141.97 327.76 2138.37 333.4 2131.17 337.96C2123.97 342.28 2114.73 344.44 2103.45 344.44C2090.73 344.44 2079.93 340.72 2071.05 333.28C2062.41 325.6 2057.25 315.52 2055.57 303.04C2053.17 291.76 2051.97 275.92 2051.97 255.52C2051.97 246.64 2052.45 234.76 2053.41 219.88L2036.13 218.44ZM2312.6 227.44C2314.52 230.8 2316.08 235.72 2317.28 242.2C2318.48 248.44 2319.08 254.08 2319.08 259.12C2319.08 265.6 2318.36 272.8 2316.92 280.72C2315.48 288.64 2314.16 294.76 2312.96 299.08C2296.4 329.32 2271.92 344.44 2239.52 344.44C2227.52 344.44 2215.28 340.48 2202.8 332.56C2190.32 324.64 2181.68 315.52 2176.88 305.2C2170.4 284.8 2167.16 271.72 2167.16 265.96C2167.16 256.36 2169.2 246.16 2173.28 235.36C2177.6 224.56 2183 215.2 2189.48 207.28C2193.8 201.76 2201.24 197.08 2211.8 193.24C2222.36 189.16 2231.96 187.12 2240.6 187.12C2257.4 187.12 2271.56 190.36 2283.08 196.84C2294.84 203.08 2304.68 213.28 2312.6 227.44ZM2281.28 285.4C2282.48 283 2283.08 274.96 2283.08 261.28C2283.08 254.32 2281.76 247.48 2279.12 240.76C2276.72 234.04 2273.12 228.28 2268.32 223.48C2267.84 223 2266.52 222.28 2264.36 221.32C2262.2 220.12 2259.2 219.04 2255.36 218.08C2251.76 216.88 2247.56 216.28 2242.76 216.28C2229.32 216.28 2219.48 221.68 2213.24 232.48C2207 243.28 2203.88 255.52 2203.88 269.2C2203.88 271.36 2204.6 275.8 2206.04 282.52C2207.48 289.24 2208.56 293.56 2209.28 295.48C2211.2 298.84 2215.04 302.8 2220.8 307.36C2226.8 311.68 2233.28 313.84 2240.24 313.84C2251.04 313.84 2259.56 311.32 2265.8 306.28C2272.28 301 2277.44 294.04 2281.28 285.4ZM2406.85 328.6C2406.85 332.68 2405.29 336.28 2402.17 339.4C2399.05 342.52 2395.21 344.08 2390.65 344.08C2383.45 344.08 2378.17 342.76 2374.81 340.12C2371.45 337.24 2369.77 332.08 2369.77 324.64C2369.77 315.76 2369.53 304.12 2369.05 289.72C2368.57 277.72 2368.33 267.64 2368.33 259.48C2368.33 255.64 2368.57 250.6 2369.05 244.36C2369.53 238.6 2369.77 234.28 2369.77 231.4C2369.05 226.84 2367.25 223.12 2364.37 220.24C2361.49 217.12 2357.77 215.56 2353.21 215.56C2351.05 215.56 2349.25 214.6 2347.81 212.68C2346.37 210.52 2345.65 208.36 2345.65 206.2C2345.65 200.68 2347.81 196.48 2352.13 193.6C2356.69 190.72 2362.09 189.28 2368.33 189.28C2381.29 189.28 2390.29 196.96 2395.33 212.32C2401.57 205.12 2408.65 199.36 2416.57 195.04C2424.73 190.48 2432.53 188.2 2439.97 188.2C2448.85 188.2 2456.89 190.6 2464.09 195.4C2471.53 200.2 2475.25 206.68 2475.25 214.84C2475.25 219.4 2473.21 224.08 2469.13 228.88C2465.29 233.68 2461.33 236.08 2457.25 236.08C2455.09 236.08 2453.17 235.6 2451.49 234.64C2450.05 233.44 2448.25 231.76 2446.09 229.6C2443.69 227.2 2441.65 225.52 2439.97 224.56C2438.29 223.36 2436.37 222.76 2434.21 222.76C2430.37 222.76 2426.77 223.36 2423.41 224.56C2420.05 225.76 2417.77 227.2 2416.57 228.88C2412.73 234.88 2409.85 240.28 2407.93 245.08C2406.25 249.88 2405.41 255.04 2405.41 260.56C2405.41 264.64 2405.29 267.88 2405.05 270.28L2404.69 290.8C2404.69 293.92 2404.81 297.4 2405.05 301.24C2405.29 305.08 2405.53 307.96 2405.77 309.88C2406.49 316.36 2406.85 322.6 2406.85 328.6ZM2514.3 111.88C2522.7 112.6 2529.9 114.88 2535.9 118.72C2542.14 122.32 2545.26 127.84 2545.26 135.28C2545.26 140.8 2542.74 145.24 2537.7 148.6C2532.66 151.72 2526.42 153.28 2518.98 153.28C2512.02 153.28 2507.22 151.48 2504.58 147.88C2501.94 144.28 2500.62 140.56 2500.62 136.72C2500.62 129.76 2501.46 123.88 2503.14 119.08C2504.82 114.04 2508.54 111.64 2514.3 111.88ZM2507.1 260.56V250.12C2507.1 238.12 2506.5 227.2 2505.3 217.36C2504.34 207.28 2503.74 201.04 2503.5 198.64C2503.74 196 2505.54 193.48 2508.9 191.08C2512.26 188.68 2515.26 187.48 2517.9 187.48C2522.46 187.48 2527.02 188.44 2531.58 190.36C2536.38 192.04 2539.38 194.2 2540.58 196.84C2541.78 205.72 2542.38 212.56 2542.38 217.36C2542.38 227.92 2542.86 245.2 2543.82 269.2L2544.18 283.24L2544.9 296.92C2545.14 300.76 2545.38 305.32 2545.62 310.6C2545.86 315.88 2545.98 321.88 2545.98 328.6C2545.98 333.16 2543.7 337 2539.14 340.12C2534.82 343.24 2530.26 344.8 2525.46 344.8C2518.5 344.8 2513.58 343.24 2510.7 340.12C2508.06 337 2506.74 332.08 2506.74 325.36L2507.1 260.56ZM2585.18 216.28C2583.26 214.84 2581.7 213.4 2580.5 211.96C2579.3 210.28 2578.7 207.4 2578.7 203.32C2578.7 198.76 2580.26 195.28 2583.38 192.88C2586.74 190.24 2590.58 188.92 2594.9 188.92C2603.3 188.92 2610.5 191.08 2616.5 195.4C2622.74 199.72 2627.3 205.72 2630.18 213.4C2635.46 203.56 2642.18 196.84 2650.34 193.24C2658.5 189.4 2669.78 187.48 2684.18 187.48C2689.94 187.48 2695.82 189.28 2701.82 192.88C2708.06 196.24 2713.7 200.44 2718.74 205.48C2722.82 210.76 2726.3 217.36 2729.18 225.28C2732.06 232.96 2733.5 239.92 2733.5 246.16C2733.5 249.76 2733.26 255.64 2732.78 263.8C2732.3 272.44 2732.06 279.28 2732.06 284.32C2732.06 301.12 2735.3 311.44 2741.78 315.28C2742.74 315.76 2744.54 316.36 2747.18 317.08C2749.82 317.8 2751.74 318.52 2752.94 319.24C2754.38 319.96 2755.1 321.04 2755.1 322.48C2755.34 328.24 2753.18 333.04 2748.62 336.88C2744.3 340.48 2739.02 342.28 2732.78 342.28C2723.42 342.28 2716.1 339.76 2710.82 334.72C2705.54 329.68 2701.82 322 2699.66 311.68C2698.46 307.84 2697.86 302.2 2697.86 294.76C2697.86 290.68 2698.1 284.08 2698.58 274.96C2699.3 267.76 2699.66 260.08 2699.66 251.92C2699.66 243.52 2697.26 236.2 2692.46 229.96C2687.66 223.48 2681.06 220.24 2672.66 220.24C2667.62 220.24 2662.34 221.8 2656.82 224.92C2651.3 227.8 2647.46 231.4 2645.3 235.72C2641.7 243.16 2639.3 250.72 2638.1 258.4C2635.22 273.28 2633.78 287.56 2633.78 301.24C2633.78 304.6 2634.02 311.08 2634.5 320.68C2634.5 321.4 2634.5 323.2 2634.5 326.08C2634.5 328.72 2634.14 331.24 2633.42 333.64C2632.94 336.04 2631.98 338.2 2630.54 340.12C2629.58 341.08 2627.78 342.04 2625.14 343C2622.5 343.96 2620.22 344.44 2618.3 344.44C2614.94 344.44 2610.74 343 2605.7 340.12C2600.66 337.24 2597.66 334 2596.7 330.4L2596.34 325.36C2596.34 323.44 2596.58 320.56 2597.06 316.72C2599.94 299.92 2601.38 285.28 2601.38 272.8C2601.38 267.28 2601.26 263.08 2601.02 260.2L2600.66 243.64C2600.66 238.6 2599.22 233.8 2596.34 229.24C2593.46 224.44 2589.74 220.12 2585.18 216.28ZM2807.02 337.6C2805.34 334 2804.5 329.8 2804.5 325C2804.5 320.44 2807.86 313.6 2814.58 304.48C2803.06 300.64 2793.94 293.8 2787.22 283.96C2780.74 274.12 2777.5 262.6 2777.5 249.4C2777.5 240.76 2779.54 232.96 2783.62 226C2787.7 218.8 2793.34 211.96 2800.54 205.48C2812.78 194.44 2829.7 188.92 2851.3 188.92C2859.94 188.92 2870.62 190.84 2883.34 194.68C2898.46 181.72 2911.78 175.24 2923.3 175.24C2930.5 175.24 2935.66 176.68 2938.78 179.56C2942.14 182.2 2943.82 186.88 2943.82 193.6C2943.82 196.24 2942.74 198.76 2940.58 201.16C2938.66 203.32 2936.14 204.4 2933.02 204.4L2920.06 204.04C2911.9 204.04 2906.02 205.6 2902.42 208.72C2906.98 214.24 2910.7 221.32 2913.58 229.96C2916.7 238.6 2918.26 248.44 2918.26 259.48C2918.26 274.12 2908.18 287.8 2888.02 300.52C2875.54 307.24 2861.02 310.72 2844.46 310.96C2842.54 312.88 2840.86 314.68 2839.42 316.36C2838.22 317.8 2837.62 319 2837.62 319.96C2837.62 322.6 2839.9 324.64 2844.46 326.08C2849.02 327.52 2855.98 328.6 2865.34 329.32C2872.3 329.8 2880.1 331.36 2888.74 334C2897.62 336.4 2904.58 339.16 2909.62 342.28C2915.86 346.84 2920.18 351.76 2922.58 357.04C2925.22 362.32 2926.54 368.92 2926.54 376.84C2926.54 387.16 2921.74 395.8 2912.14 402.76C2902.78 409.96 2891.74 415.24 2879.02 418.6C2866.3 421.96 2855.14 423.64 2845.54 423.64C2834.02 423.64 2824.18 422.2 2816.02 419.32C2808.1 416.68 2800.54 412.96 2793.34 408.16C2788.3 404.56 2784.34 400 2781.46 394.48C2778.58 388.96 2777.14 383.2 2777.14 377.2C2777.14 372.4 2780.74 365.92 2787.94 357.76C2795.38 349.6 2802.58 343.96 2809.54 340.84C2808.82 340.12 2807.98 339.04 2807.02 337.6ZM2843.38 281.44C2854.66 281.44 2864.14 278.44 2871.82 272.44C2879.5 266.2 2883.34 257.68 2883.34 246.88C2883.34 238.24 2880.82 231.4 2875.78 226.36C2870.74 221.08 2863.66 218.44 2854.54 218.44C2835.58 218.44 2823.22 222.64 2817.46 231.04C2816.02 232.96 2814.58 236.68 2813.14 242.2C2811.7 247.48 2810.98 251.56 2810.98 254.44C2810.98 258.52 2812.42 262.72 2815.3 267.04C2818.42 271.12 2822.5 274.6 2827.54 277.48C2832.58 280.12 2837.86 281.44 2843.38 281.44ZM2810.98 379.72C2810.98 383.8 2814.7 387.28 2822.14 390.16C2829.82 393.28 2837.98 394.84 2846.62 394.84C2856.22 394.84 2866.06 393.04 2876.14 389.44C2886.46 386.08 2891.62 381.52 2891.62 375.76C2891.62 367.36 2884.18 361.96 2869.3 359.56C2852.98 356.68 2840.14 354.04 2830.78 351.64C2829.82 355 2826.58 359.32 2821.06 364.6C2817.46 368.2 2814.82 370.96 2813.14 372.88C2811.7 375.04 2810.98 377.32 2810.98 379.72ZM3213.93 277.84C3213.93 289.12 3211.29 298.84 3206.01 307C3200.97 314.92 3192.57 322.24 3180.81 328.96C3172.89 333.76 3163.65 337.36 3153.09 339.76C3142.53 342.16 3131.85 343.36 3121.05 343.36C3110.01 343.36 3096.33 339.76 3080.01 332.56C3068.25 326.8 3058.89 319.96 3051.93 312.04C3045.21 304.12 3041.85 295.48 3041.85 286.12C3041.85 279.64 3043.29 274.96 3046.17 272.08C3049.05 268.96 3053.73 267.4 3060.21 267.4C3063.57 267.4 3067.05 268.84 3070.65 271.72C3074.25 274.36 3076.41 277 3077.13 279.64C3080.49 289.48 3086.37 297.04 3094.77 302.32C3103.17 307.36 3113.61 309.88 3126.09 309.88C3140.49 309.88 3152.49 307.24 3162.09 301.96C3171.93 296.68 3176.85 289.6 3176.85 280.72C3176.85 272.08 3171.57 264.4 3161.01 257.68C3150.45 250.96 3139.65 246.28 3128.61 243.64C3112.77 239.32 3098.73 234.16 3086.49 228.16C3073.77 221.92 3064.29 214.24 3058.05 205.12C3051.81 196 3048.69 186.4 3048.69 176.32C3048.69 166.96 3051.93 157.48 3058.41 147.88C3064.89 138.04 3072.57 130.96 3081.45 126.64C3086.25 124.24 3094.41 121.72 3105.93 119.08C3117.69 116.2 3126.21 114.76 3131.49 114.76C3138.45 114.76 3146.13 115.6 3154.53 117.28C3162.93 118.96 3169.77 121.36 3175.05 124.48C3185.61 130.48 3193.41 135.88 3198.45 140.68C3203.49 145.48 3206.01 151.48 3206.01 158.68C3206.01 163 3204.33 166.84 3200.97 170.2C3197.85 173.56 3192.33 175.24 3184.41 175.24C3182.49 175.24 3180.57 174.4 3178.65 172.72C3176.73 171.04 3174.33 168.52 3171.45 165.16C3167.61 160.12 3163.89 156.76 3160.29 155.08C3156.69 153.88 3151.41 152.56 3144.45 151.12C3137.73 149.68 3131.73 148.96 3126.45 148.96C3120.69 148.96 3114.69 150.16 3108.45 152.56C3102.21 154.96 3096.93 158.44 3092.61 163C3088.53 167.32 3086.49 172.36 3086.49 178.12C3086.49 182.92 3088.65 187.12 3092.97 190.72C3097.53 194.08 3102.93 196.84 3109.17 199C3116.37 201.88 3124.17 204.4 3132.57 206.56C3143.61 209.92 3152.61 213.04 3159.57 215.92C3166.77 218.56 3173.73 221.92 3180.45 226C3192.21 232.96 3200.73 240.16 3206.01 247.6C3211.29 254.8 3213.93 264.88 3213.93 277.84ZM3284.73 416.44C3275.61 416.44 3267.93 414.88 3261.69 411.76C3255.69 408.88 3251.13 405.28 3248.01 400.96C3245.13 396.88 3243.69 393.28 3243.69 390.16C3243.69 386.08 3245.13 382.84 3248.01 380.44C3250.89 378.28 3254.37 377.2 3258.45 377.2C3260.85 377.2 3263.13 377.92 3265.29 379.36C3267.45 380.8 3268.65 381.64 3268.89 381.88C3270.57 383.08 3272.25 384.04 3273.93 384.76C3275.61 385.72 3277.41 386.2 3279.33 386.2C3284.61 386.2 3288.93 382.72 3292.29 375.76C3295.65 368.8 3299.01 357.52 3302.37 341.92C3291.57 326.08 3282.57 310.24 3275.37 294.4L3267.09 275.32C3265.89 272.44 3262.53 265 3257.01 253C3251.73 240.76 3246.45 229.96 3241.17 220.6C3237.81 213.88 3236.13 209.32 3236.13 206.92C3236.13 200.92 3238.17 196.48 3242.25 193.6C3246.57 190.72 3251.49 189.28 3257.01 189.28C3260.85 189.28 3263.73 190.12 3265.65 191.8C3267.81 193.24 3270.21 196 3272.85 200.08C3279.81 211.6 3287.37 228.88 3295.53 251.92C3300.33 265.12 3304.17 275.2 3307.05 282.16C3309.93 288.88 3313.41 295.72 3317.49 302.68C3321.57 293.32 3326.73 277.36 3332.97 254.8C3336.81 241.84 3339.93 231.52 3342.33 223.84C3344.97 215.92 3347.85 208.72 3350.97 202.24C3353.13 197.92 3355.77 194.44 3358.89 191.8C3362.25 189.16 3365.97 187.84 3370.05 187.84C3374.13 187.84 3378.45 189.4 3383.01 192.52C3387.81 195.4 3390.21 198.88 3390.21 202.96C3390.21 205.36 3389.37 208.24 3387.69 211.6C3378.33 233.2 3370.05 253.6 3362.85 272.8C3355.89 291.76 3349.17 312.64 3342.69 335.44C3338.85 348.16 3334.77 360.28 3330.45 371.8C3326.37 383.32 3323.49 390.4 3321.81 393.04C3317.01 399.76 3311.61 405.28 3305.61 409.6C3299.61 414.16 3292.65 416.44 3284.73 416.44ZM3515.04 265.24C3516.96 266.44 3520.68 268.72 3526.2 272.08C3531.96 275.2 3535.8 278.92 3537.72 283.24C3539.64 287.56 3540.6 293.56 3540.6 301.24C3540.6 309.88 3538.08 317.56 3533.04 324.28C3528 330.76 3521.52 335.8 3513.6 339.4C3508.08 341.8 3502.08 343.24 3495.6 343.72C3489.36 344.2 3481.8 344.44 3472.92 344.44C3468.12 344.44 3461.88 343.72 3454.2 342.28C3446.76 340.84 3441.6 339.52 3438.72 338.32C3431.04 334 3424.56 328.96 3419.28 323.2C3414 317.44 3411.36 311.56 3411.36 305.56C3411.36 300.76 3412.92 296.92 3416.04 294.04C3419.16 291.16 3423.24 289.72 3428.28 289.72C3430.92 289.72 3433.44 290.44 3435.84 291.88C3438.48 293.08 3440.28 294.52 3441.24 296.2C3443.88 302.44 3448.32 307.12 3454.56 310.24C3460.8 313.36 3467.16 314.92 3473.64 314.92C3496.44 314.92 3507.84 310.84 3507.84 302.68C3507.84 300.52 3507.24 298.84 3506.04 297.64C3505.08 296.2 3503.64 294.76 3501.72 293.32C3498.6 291.16 3494.16 288.88 3488.4 286.48C3482.88 284.08 3477.96 282.28 3473.64 281.08C3463.8 278.92 3454.2 275.68 3444.84 271.36C3436.2 267.04 3429.12 261.4 3423.6 254.44C3418.08 247.24 3415.32 238.48 3415.32 228.16C3415.32 221.92 3417.6 215.8 3422.16 209.8C3426.96 203.56 3432.48 198.88 3438.72 195.76C3443.04 194.08 3450.12 192.28 3459.96 190.36C3469.8 188.44 3476.52 187.48 3480.12 187.48C3485.64 187.48 3491.64 188.08 3498.12 189.28C3504.6 190.24 3509.52 191.92 3512.88 194.32C3519.36 198.16 3524.64 202.24 3528.72 206.56C3532.8 210.64 3534.84 215.32 3534.84 220.6C3534.84 223.24 3534.24 226.12 3533.04 229.24C3531.84 232.12 3530.4 233.92 3528.72 234.64C3525.12 236.32 3520.92 237.16 3516.12 237.16C3513.96 237.16 3512.16 236.56 3510.72 235.36C3509.52 234.16 3507.84 232.24 3505.68 229.6C3503.04 225.52 3500.52 223.12 3498.12 222.4C3495.24 221.68 3491.04 220.84 3485.52 219.88C3480 218.68 3476.28 218.08 3474.36 218.08C3468.36 218.08 3462.6 219.28 3457.08 221.68C3451.8 224.08 3449.16 227.32 3449.16 231.4C3449.16 236.2 3453.12 240.28 3461.04 243.64C3466.08 246.04 3471.6 248.08 3477.6 249.76C3483.84 251.44 3487.68 252.52 3489.12 253C3492.48 253.72 3496.8 255.4 3502.08 258.04C3507.6 260.68 3511.92 263.08 3515.04 265.24ZM3575.27 218.44C3571.91 217.96 3569.15 216.52 3566.99 214.12C3565.07 211.72 3564.11 208.84 3564.11 205.48C3564.11 203.8 3564.47 202 3565.19 200.08C3566.15 198.16 3567.47 196.48 3569.15 195.04C3572.27 192.4 3576.47 189.88 3581.75 187.48C3587.27 185.32 3591.23 182.68 3593.63 179.56C3596.03 176.44 3597.23 170.56 3597.23 161.92C3597.23 158.32 3596.99 155.2 3596.51 152.56C3596.27 149.92 3596.15 147.88 3596.15 146.44C3596.15 141.16 3598.07 137.2 3601.91 134.56C3605.75 131.92 3610.19 130.6 3615.23 130.6C3621.47 130.6 3625.67 132.16 3627.83 135.28C3630.23 138.4 3631.43 144.16 3631.43 152.56C3631.43 160.72 3631.07 167.8 3630.35 173.8C3629.63 179.56 3628.07 184.72 3625.67 189.28C3629.03 189.28 3634.55 189.04 3642.23 188.56C3652.79 188.08 3660.11 187.84 3664.19 187.84C3668.27 187.84 3671.87 188.92 3674.99 191.08C3678.11 193 3679.67 195.76 3679.67 199.36C3679.67 204.4 3678.59 208.12 3676.43 210.52C3674.27 212.92 3671.15 214.48 3667.07 215.2C3657.23 217.84 3643.31 219.4 3625.31 219.88C3624.83 229.24 3624.59 239.44 3624.59 250.48C3624.59 268.96 3625.67 283.12 3627.83 292.96C3629.27 300.64 3631.67 306.28 3635.03 309.88C3638.63 313.24 3643.91 314.92 3650.87 314.92C3654.47 314.92 3657.35 314.44 3659.51 313.48C3661.91 312.52 3663.23 311.92 3663.47 311.68C3666.35 310 3668.99 309.16 3671.39 309.16C3674.75 309.16 3677.15 310.24 3678.59 312.4C3680.27 314.56 3681.11 317.44 3681.11 321.04C3681.11 327.76 3677.51 333.4 3670.31 337.96C3663.11 342.28 3653.87 344.44 3642.59 344.44C3629.87 344.44 3619.07 340.72 3610.19 333.28C3601.55 325.6 3596.39 315.52 3594.71 303.04C3592.31 291.76 3591.11 275.92 3591.11 255.52C3591.11 246.64 3591.59 234.76 3592.55 219.88L3575.27 218.44ZM3707.02 266.68C3707.02 257.56 3708.7 248.44 3712.06 239.32C3715.42 229.96 3719.86 221.44 3725.38 213.76C3730.9 206.08 3739.66 199.84 3751.66 195.04C3763.66 190 3774.34 187.48 3783.7 187.48C3793.3 187.48 3803.02 188.8 3812.86 191.44C3822.94 194.08 3829.9 198.16 3833.74 203.68C3842.62 216.16 3847.06 228.4 3847.06 240.4C3847.06 246.88 3845.62 252.4 3842.74 256.96C3840.1 261.52 3836.26 266.44 3831.22 271.72C3827.14 276.04 3820.66 278.92 3811.78 280.36C3803.14 281.8 3794.5 282.52 3785.86 282.52C3780.34 282.52 3773.62 282.04 3765.7 281.08C3757.78 279.88 3750.1 278.44 3742.66 276.76C3743.14 281.56 3744.34 286.24 3746.26 290.8C3748.18 295.36 3750.46 298.84 3753.1 301.24C3757.9 305.8 3762.82 308.68 3767.86 309.88C3773.14 311.08 3779.86 311.68 3788.02 311.68C3796.66 311.68 3804.7 310.24 3812.14 307.36C3818.14 305.2 3823.06 304.12 3826.9 304.12C3831.46 304.12 3834.94 305.56 3837.34 308.44C3839.74 311.08 3840.94 314.56 3840.94 318.88C3840.94 324.88 3837.46 329.8 3830.5 333.64C3823.54 337.48 3815.5 340.36 3806.38 342.28C3797.5 343.96 3790.3 344.8 3784.78 344.8C3773.5 344.8 3762.58 342.76 3752.02 338.68C3741.46 334.6 3732.7 328.84 3725.74 321.4C3719.98 314.68 3715.42 306.64 3712.06 297.28C3708.7 287.68 3707.02 277.48 3707.02 266.68ZM3785.5 218.08C3780.22 218.08 3774.94 219.16 3769.66 221.32C3764.38 223.24 3760.06 226 3756.7 229.6C3752.38 234.16 3749.38 237.88 3747.7 240.76C3746.26 243.4 3745.3 247.12 3744.82 251.92C3750.82 253.84 3763.3 254.8 3782.26 254.8C3792.58 254.8 3800.5 253.24 3806.02 250.12C3811.78 247 3814.66 242.92 3814.66 237.88C3814.66 232.84 3811.54 228.28 3805.3 224.2C3799.06 220.12 3792.46 218.08 3785.5 218.08ZM4108.62 330.4C4105.02 323.68 4102.74 316.24 4101.78 308.08C4100.82 299.68 4100.34 288.16 4100.34 273.52C4100.34 259.6 4098.42 247.48 4094.58 237.16C4090.74 226.84 4082.82 221.68 4070.82 221.68C4066.26 221.68 4061.7 223.12 4057.14 226C4052.82 228.64 4049.58 232 4047.42 236.08C4044.06 242.56 4041.78 249.64 4040.58 257.32C4039.38 264.76 4038.78 273.4 4038.78 283.24C4038.78 289.48 4039.14 295.84 4039.86 302.32C4039.86 304.24 4039.98 307.36 4040.22 311.68C4040.7 315.76 4040.94 319.48 4040.94 322.84C4040.94 337.24 4035.9 344.44 4025.82 344.44C4012.62 344.44 4005.66 337.48 4004.94 323.56C4004.94 313.72 4005.06 308.44 4005.3 307.72V292.24C4005.3 283.6 4004.94 275.2 4004.22 267.04C4003.5 258.88 4002.66 252.76 4001.7 248.68C3999.54 240.76 3996.66 234.64 3993.06 230.32C3989.7 226 3984.3 223.84 3976.86 223.84C3966.3 223.84 3957.78 228.4 3951.3 237.52C3946.74 244.72 3943.74 253.48 3942.3 263.8C3940.86 277 3939.78 287.44 3939.06 295.12C3938.58 302.56 3938.34 311.2 3938.34 321.04C3938.34 328 3937.14 333.64 3934.74 337.96C3932.58 342.28 3928.38 344.44 3922.14 344.44C3917.58 344.44 3912.78 343.24 3907.74 340.84C3902.94 338.2 3900.54 334.72 3900.54 330.4C3900.54 325.84 3901.02 321.28 3901.98 316.72C3904.14 303.04 3905.22 278.56 3905.22 243.28C3905.22 237.52 3903.78 232 3900.9 226.72C3898.26 221.2 3895.02 218.44 3891.18 218.44C3890.22 218.44 3888.42 218.92 3885.78 219.88C3883.38 220.84 3881.58 221.32 3880.38 221.32C3877.26 221.32 3874.38 219.88 3871.74 217C3869.34 214.12 3868.14 211.72 3868.14 209.8C3868.14 203.8 3871.02 198.76 3876.78 194.68C3882.78 190.36 3889.02 188.2 3895.5 188.2C3904.38 188.2 3911.94 190.96 3918.18 196.48C3924.42 202 3929.22 209.68 3932.58 219.52C3938.1 209.92 3945.54 202.24 3954.9 196.48C3964.26 190.48 3974.7 187.48 3986.22 187.48C3993.42 187.48 3999.18 188.44 4003.5 190.36C4008.06 192.04 4011.78 194.56 4014.66 197.92C4017.54 201.04 4021.26 205.84 4025.82 212.32C4031.82 204.64 4039.5 198.64 4048.86 194.32C4058.46 190 4068.3 187.84 4078.38 187.84C4090.38 187.84 4101.18 192.76 4110.78 202.6C4120.38 212.2 4126.86 223.36 4130.22 236.08C4131.9 242.56 4132.74 255.04 4132.74 273.52L4134.18 294.4C4135.38 306.88 4139.46 314.44 4146.42 317.08C4154.58 319.48 4158.66 322 4158.66 324.64C4158.66 330.4 4157.22 334.6 4154.34 337.24C4152.18 338.68 4149.18 340.24 4145.34 341.92C4141.5 343.6 4138.5 344.44 4136.34 344.44C4123.38 344.44 4114.14 339.76 4108.62 330.4Z" fill="#206BC4"/>
</svg>
