<svg width="5015" height="476" viewBox="0 0 5015 476" fill="none" xmlns="http://www.w3.org/2000/svg">
<path d="M166.831 0.723633C74.037 108.772 0.555176 215.154 0.555176 303.528C0.555176 391.902 74.9791 463.536 166.831 463.536C258.684 463.536 333.108 391.902 333.108 303.528C333.108 215.154 259.626 108.917 166.831 0.723633Z" fill="#206BC4"/>
<path opacity="0.2" d="M166.831 0.723633C74.037 108.772 0.555176 215.154 0.555176 303.528C0.555176 391.902 74.9791 463.536 166.831 463.536C258.684 463.536 333.108 391.902 333.108 303.528C333.108 215.154 259.626 108.917 166.831 0.723633Z" fill="white"/>
<path opacity="0.2" d="M155.961 79.9308C139.439 99.6057 133.786 126.708 132.554 152.398C130.931 174.629 133.752 196.961 140.852 218.09C152.229 249.178 179.259 276.571 214.189 277.078C222.451 277.231 230.625 275.364 238 271.638C245.376 267.912 251.73 262.441 256.51 255.7C262.87 245.145 266.321 233.093 266.51 220.771C269.083 178.196 252.777 136.165 228.718 100.91C213.355 78.3728 183.97 50.183 158.969 76.4161C158.026 77.8292 157.048 78.9163 155.961 79.9308Z" fill="white"/>
<path opacity="0.1" d="M306.585 390.272C280.641 417.302 240.784 437.774 180.274 429.259C34.1076 408.642 4.86696 252.765 39.9411 175.37C15.3023 220.735 0.555176 263.925 0.555176 303.529C0.555176 391.902 74.9791 463.536 166.831 463.536C194.347 463.719 221.486 457.133 245.857 444.356C270.228 431.58 291.083 413.007 306.585 390.272Z" fill="black"/>
<path d="M533.438 378V344.777L560.508 339.328V160.91L533.438 155.461V122.062H740.508V194.66H697.793L696.035 165.305H616.758V230.52H705V273.586H616.758V339.328L643.652 344.777V378H533.438ZM834.199 381.691C814.395 381.691 798.809 375.422 787.441 362.883C776.074 350.227 770.391 330.715 770.391 304.348V226.652L749.824 221.203V187.805H770.391H826.641V304.699C826.641 316.184 828.809 324.68 833.145 330.188C837.48 335.578 844.102 338.273 853.008 338.273C859.102 338.273 864.727 337.102 869.883 334.758C875.156 332.414 879.609 328.957 883.242 324.387V226.652L861.621 221.203V187.805H883.242H939.492V339.328L962.871 344.777V378H890.449L886.758 355.148C880.664 363.703 873.164 370.266 864.258 374.836C855.469 379.406 845.449 381.691 834.199 381.691ZM1072.56 381.691C1054.16 381.691 1038.11 377.707 1024.39 369.738C1010.68 361.652 1000.02 350.637 992.402 336.691C984.902 322.629 981.152 306.691 981.152 288.879V282.023C981.152 263.039 984.609 246.164 991.523 231.398C998.438 216.633 1008.4 205.09 1021.41 196.77C1034.41 188.332 1050 184.172 1068.16 184.289C1085.39 184.289 1099.92 187.629 1111.76 194.309C1123.59 200.988 1132.56 210.773 1138.65 223.664C1144.86 236.438 1147.97 252.023 1147.97 270.422V300.305H1039.51L1039.34 301.359C1040.04 308.625 1042.03 315.07 1045.31 320.695C1048.71 326.203 1053.34 330.598 1059.2 333.879C1065.18 337.16 1072.44 338.801 1081 338.801C1089.79 338.801 1098.11 337.746 1105.96 335.637C1113.93 333.527 1121.95 330.246 1130.04 325.793L1144.1 360.07C1135.9 366.281 1125.7 371.438 1113.52 375.539C1101.45 379.641 1087.79 381.691 1072.56 381.691ZM1039.69 264.27H1095.94V259.699C1095.94 252.434 1095.06 246.281 1093.3 241.242C1091.66 236.086 1088.85 232.16 1084.86 229.465C1081 226.77 1075.84 225.422 1069.39 225.422C1062.83 225.422 1057.44 227.062 1053.22 230.344C1049 233.625 1045.78 238.137 1043.55 243.879C1041.45 249.621 1039.98 256.125 1039.16 263.391L1039.69 264.27ZM1167.66 378V344.777L1191.39 339.328V142.629L1164.14 137.18V103.781H1247.64V339.328L1271.19 344.777V378H1167.66ZM1370.86 378V344.777L1397.75 339.328V160.91L1370.86 155.461V122.062H1397.75H1482.48L1548.4 295.734H1549.45L1613.61 122.062H1724.53V155.461L1697.46 160.91V339.328L1724.53 344.777V378H1614.49V344.777L1642.62 339.328V297.668L1643.67 179.895L1642.62 179.719L1568.09 376.242H1524.67L1448.73 181.652L1447.5 181.828L1451.19 290.988V339.328L1481.07 344.777V378H1370.86ZM1805.74 381.691C1786.99 381.691 1771.93 376.594 1760.57 366.398C1749.32 356.086 1743.69 342.199 1743.69 324.738C1743.69 312.902 1746.86 302.414 1753.18 293.273C1759.63 284.133 1769.24 276.984 1782.01 271.828C1794.79 266.672 1810.66 264.094 1829.65 264.094H1852.32V251.438C1852.32 243 1849.86 236.027 1844.94 230.52C1840.14 225.012 1832.75 222.258 1822.79 222.258C1817.99 222.258 1813.59 222.844 1809.61 224.016C1805.74 225.188 1802.17 226.887 1798.89 229.113L1794.84 253.723H1754.77L1754.06 202.746C1764.38 197.473 1775.39 193.078 1787.11 189.562C1798.83 186.047 1811.84 184.289 1826.13 184.289C1851.56 184.289 1871.66 190.148 1886.43 201.867C1901.19 213.586 1908.57 230.285 1908.57 251.965V326.496C1908.57 329.191 1908.57 331.828 1908.57 334.406C1908.69 336.867 1908.98 339.27 1909.45 341.613L1929.49 344.777V378H1861.99C1860.59 375.305 1859.12 372.141 1857.6 368.508C1856.07 364.875 1855.02 361.242 1854.43 357.609C1848.46 364.992 1841.6 370.852 1833.87 375.188C1826.13 379.523 1816.76 381.691 1805.74 381.691ZM1821.91 341.086C1827.77 341.086 1833.46 339.797 1838.96 337.219C1844.47 334.641 1848.93 331.125 1852.32 326.672V297.844H1830C1820.16 297.844 1812.6 300.07 1807.32 304.523C1802.17 308.977 1799.59 314.484 1799.59 321.047C1799.59 327.375 1801.58 332.297 1805.57 335.812C1809.67 339.328 1815.12 341.086 1821.91 341.086ZM1942.68 378V344.777L1966.23 339.328V226.652L1939.34 221.203V187.805H2018.96L2021.25 214.699C2027.58 205.09 2035.37 197.648 2044.63 192.375C2053.89 186.984 2064.43 184.289 2076.27 184.289C2094.55 184.289 2108.96 190.324 2119.51 202.395C2130.06 214.465 2135.33 233.508 2135.33 259.523V339.328L2158.71 344.777V378H2058.69V344.777L2078.91 339.328V259.523C2078.91 248.039 2076.56 239.895 2071.88 235.09C2067.3 230.168 2060.62 227.707 2051.84 227.707C2045.27 227.707 2039.53 229.055 2034.61 231.75C2029.8 234.328 2025.76 238.078 2022.48 243V339.328L2040.76 344.777V378H1942.68ZM2237.81 381.691C2219.06 381.691 2204 376.594 2192.64 366.398C2181.39 356.086 2175.76 342.199 2175.76 324.738C2175.76 312.902 2178.93 302.414 2185.25 293.273C2191.7 284.133 2201.31 276.984 2214.08 271.828C2226.86 266.672 2242.73 264.094 2261.72 264.094H2284.39V251.438C2284.39 243 2281.93 236.027 2277.01 230.52C2272.21 225.012 2264.82 222.258 2254.86 222.258C2250.06 222.258 2245.66 222.844 2241.68 224.016C2237.81 225.188 2234.24 226.887 2230.96 229.113L2226.91 253.723H2186.84L2186.13 202.746C2196.45 197.473 2207.46 193.078 2219.18 189.562C2230.9 186.047 2243.91 184.289 2258.2 184.289C2283.63 184.289 2303.73 190.148 2318.5 201.867C2333.26 213.586 2340.64 230.285 2340.64 251.965V326.496C2340.64 329.191 2340.64 331.828 2340.64 334.406C2340.76 336.867 2341.05 339.27 2341.52 341.613L2361.56 344.777V378H2294.06C2292.66 375.305 2291.19 372.141 2289.67 368.508C2288.14 364.875 2287.09 361.242 2286.5 357.609C2280.53 364.992 2273.67 370.852 2265.94 375.188C2258.2 379.523 2248.83 381.691 2237.81 381.691ZM2253.98 341.086C2259.84 341.086 2265.53 339.797 2271.04 337.219C2276.54 334.641 2281 331.125 2284.39 326.672V297.844H2262.07C2252.23 297.844 2244.67 300.07 2239.39 304.523C2234.24 308.977 2231.66 314.484 2231.66 321.047C2231.66 327.375 2233.65 332.297 2237.64 335.812C2241.74 339.328 2247.19 341.086 2253.98 341.086ZM2461.41 454.816C2451.56 454.816 2440.43 453.586 2428.01 451.125C2415.7 448.664 2404.86 445.09 2395.49 440.402L2405.16 401.027C2413.83 404.66 2422.79 407.473 2432.05 409.465C2441.43 411.457 2450.04 412.453 2457.89 412.453C2471.13 412.453 2480.86 408.762 2487.07 401.379C2493.28 394.113 2496.39 384.035 2496.39 371.145V360.422C2490.88 367.219 2484.43 372.492 2477.05 376.242C2469.79 379.875 2461.41 381.691 2451.91 381.691C2436.45 381.691 2423.14 377.824 2412.01 370.09C2401 362.238 2392.56 351.223 2386.7 337.043C2380.96 322.863 2378.09 306.398 2378.09 287.648V283.957C2378.09 264.035 2380.96 246.633 2386.7 231.75C2392.56 216.75 2400.88 205.09 2411.66 196.77C2422.44 188.449 2435.39 184.289 2450.51 184.289C2461.64 184.289 2471.19 186.691 2479.16 191.496C2487.25 196.301 2494.1 203.039 2499.73 211.711L2503.42 187.805H2552.64V371.496C2552.64 388.254 2548.95 402.844 2541.56 415.266C2534.3 427.805 2523.81 437.531 2510.1 444.445C2496.5 451.359 2480.27 454.816 2461.41 454.816ZM2468.09 338.273C2474.3 338.273 2479.8 337.102 2484.61 334.758C2489.41 332.414 2493.34 329.016 2496.39 324.562V243.352C2493.34 238.312 2489.41 234.445 2484.61 231.75C2479.8 229.055 2474.36 227.707 2468.26 227.707C2460.18 227.707 2453.61 230.051 2448.57 234.738C2443.54 239.426 2439.9 245.988 2437.68 254.426C2435.45 262.863 2434.34 272.707 2434.34 283.957V287.648C2434.34 303.469 2436.86 315.891 2441.89 324.914C2447.05 333.82 2455.78 338.273 2468.09 338.273ZM2545.96 227.531L2521 187.805H2574.79V221.379L2545.96 227.531ZM2680.25 381.691C2661.86 381.691 2645.8 377.707 2632.09 369.738C2618.38 361.652 2607.71 350.637 2600.1 336.691C2592.6 322.629 2588.85 306.691 2588.85 288.879V282.023C2588.85 263.039 2592.3 246.164 2599.22 231.398C2606.13 216.633 2616.09 205.09 2629.1 196.77C2642.11 188.332 2657.7 184.172 2675.86 184.289C2693.09 184.289 2707.62 187.629 2719.45 194.309C2731.29 200.988 2740.25 210.773 2746.35 223.664C2752.56 236.438 2755.66 252.023 2755.66 270.422V300.305H2647.21L2647.03 301.359C2647.73 308.625 2649.73 315.07 2653.01 320.695C2656.41 326.203 2661.04 330.598 2666.89 333.879C2672.87 337.16 2680.14 338.801 2688.69 338.801C2697.48 338.801 2705.8 337.746 2713.65 335.637C2721.62 333.527 2729.65 330.246 2737.73 325.793L2751.8 360.07C2743.59 366.281 2733.4 371.438 2721.21 375.539C2709.14 379.641 2695.49 381.691 2680.25 381.691ZM2647.38 264.27H2703.63V259.699C2703.63 252.434 2702.75 246.281 2701 241.242C2699.36 236.086 2696.54 232.16 2692.56 229.465C2688.69 226.77 2683.54 225.422 2677.09 225.422C2670.53 225.422 2665.14 227.062 2660.92 230.344C2656.7 233.625 2653.48 238.137 2651.25 243.879C2649.14 249.621 2647.68 256.125 2646.86 263.391L2647.38 264.27ZM2775.88 378V344.777L2799.61 339.328V226.652L2772.54 221.203V187.805H2852.17L2854.1 212.941C2860.31 203.918 2867.93 196.887 2876.95 191.848C2885.98 186.809 2896.46 184.289 2908.42 184.289C2920.37 184.289 2930.62 186.926 2939.18 192.199C2947.85 197.473 2954.41 205.441 2958.87 216.105C2964.61 206.027 2972.11 198.234 2981.37 192.727C2990.62 187.102 3001.46 184.289 3013.89 184.289C3032.52 184.289 3047.17 190.617 3057.83 203.273C3068.5 215.812 3073.83 235.09 3073.83 261.105V339.328L3097.56 344.777V378H2997.54V344.777L3017.75 339.328V260.93C3017.75 248.273 3015.7 239.602 3011.6 234.914C3007.62 230.109 3001.7 227.707 2993.85 227.707C2987.17 227.707 2981.37 229.406 2976.45 232.805C2971.52 236.086 2967.6 240.598 2964.67 246.34V339.328L2983.12 344.777V378H2890.31V344.777L2908.77 339.328V260.93C2908.77 248.508 2906.72 239.895 2902.62 235.09C2898.63 230.168 2892.66 227.707 2884.69 227.707C2878.36 227.707 2872.73 228.996 2867.81 231.574C2863.01 234.035 2858.96 237.668 2855.68 242.473V339.328L2875.9 344.777V378H2775.88ZM3203.03 381.691C3184.63 381.691 3168.57 377.707 3154.86 369.738C3141.15 361.652 3130.49 350.637 3122.87 336.691C3115.37 322.629 3111.62 306.691 3111.62 288.879V282.023C3111.62 263.039 3115.08 246.164 3121.99 231.398C3128.91 216.633 3138.87 205.09 3151.88 196.77C3164.88 188.332 3180.47 184.172 3198.63 184.289C3215.86 184.289 3230.39 187.629 3242.23 194.309C3254.06 200.988 3263.03 210.773 3269.12 223.664C3275.33 236.438 3278.44 252.023 3278.44 270.422V300.305H3169.98L3169.8 301.359C3170.51 308.625 3172.5 315.07 3175.78 320.695C3179.18 326.203 3183.81 330.598 3189.67 333.879C3195.64 337.16 3202.91 338.801 3211.46 338.801C3220.25 338.801 3228.57 337.746 3236.43 335.637C3244.39 333.527 3252.42 330.246 3260.51 325.793L3274.57 360.07C3266.37 366.281 3256.17 371.438 3243.98 375.539C3231.91 379.641 3218.26 381.691 3203.03 381.691ZM3170.16 264.27H3226.41V259.699C3226.41 252.434 3225.53 246.281 3223.77 241.242C3222.13 236.086 3219.32 232.16 3215.33 229.465C3211.46 226.77 3206.31 225.422 3199.86 225.422C3193.3 225.422 3187.91 227.062 3183.69 230.344C3179.47 233.625 3176.25 238.137 3174.02 243.879C3171.91 249.621 3170.45 256.125 3169.63 263.391L3170.16 264.27ZM3298.65 378V344.777L3322.21 339.328V226.652L3295.31 221.203V187.805H3374.94L3377.23 214.699C3383.55 205.09 3391.35 197.648 3400.61 192.375C3409.86 186.984 3420.41 184.289 3432.25 184.289C3450.53 184.289 3464.94 190.324 3475.49 202.395C3486.04 214.465 3491.31 233.508 3491.31 259.523V339.328L3514.69 344.777V378H3414.67V344.777L3434.88 339.328V259.523C3434.88 248.039 3432.54 239.895 3427.85 235.09C3423.28 230.168 3416.6 227.707 3407.81 227.707C3401.25 227.707 3395.51 229.055 3390.59 231.75C3385.78 234.328 3381.74 238.078 3378.46 243V339.328L3396.74 344.777V378H3298.65ZM3600.47 381.867C3581.72 381.867 3567.36 376.828 3557.4 366.75C3547.44 356.555 3542.46 340.441 3542.46 318.41V227.004H3517.5V187.805H3542.46V141.047H3598.36V187.805H3631.58V227.004H3598.36V318.234C3598.36 325.031 3599.82 329.895 3602.75 332.824C3605.8 335.637 3609.9 337.043 3615.06 337.043C3617.64 337.043 3620.27 336.867 3622.97 336.516C3625.66 336.164 3628.12 335.812 3630.35 335.461L3634.57 376.77C3629.3 378.293 3623.73 379.523 3617.87 380.461C3612.13 381.398 3606.33 381.867 3600.47 381.867ZM3846.74 381.691C3826.93 381.691 3809.12 379.641 3793.3 375.539C3777.48 371.438 3761.84 364.055 3746.37 353.391V289.23H3789.79L3795.23 324.562C3799.69 328.898 3806.6 332.473 3815.98 335.285C3825.35 338.098 3835.61 339.504 3846.74 339.504C3855.29 339.504 3862.5 338.391 3868.36 336.164C3874.22 333.82 3878.67 330.539 3881.72 326.32C3884.77 321.984 3886.29 316.887 3886.29 311.027C3886.29 305.402 3884.88 300.422 3882.07 296.086C3879.38 291.633 3874.86 287.531 3868.54 283.781C3862.21 280.031 3853.65 276.34 3842.87 272.707C3821.78 266.262 3804.38 259.465 3790.66 252.316C3777.07 245.051 3766.88 236.496 3760.08 226.652C3753.4 216.691 3750.06 204.504 3750.06 190.09C3750.06 176.145 3753.98 163.898 3761.84 153.352C3769.8 142.688 3780.7 134.309 3794.53 128.215C3808.36 122.121 3824.3 118.957 3842.34 118.723C3862.62 118.254 3880.55 120.422 3896.13 125.227C3911.72 130.031 3925.31 136.945 3936.91 145.969V205.559H3895.08L3888.05 170.93C3883.83 168.469 3877.97 166.301 3870.47 164.426C3863.09 162.551 3854.88 161.613 3845.86 161.613C3838.12 161.613 3831.27 162.727 3825.29 164.953C3819.43 167.062 3814.75 170.285 3811.23 174.621C3807.83 178.84 3806.13 184.055 3806.13 190.266C3806.13 195.305 3807.6 199.816 3810.53 203.801C3813.46 207.785 3818.5 211.652 3825.64 215.402C3832.79 219.035 3842.7 223.078 3855.35 227.531C3883.95 235.734 3905.62 246.281 3920.39 259.172C3935.27 272.062 3942.71 289.23 3942.71 310.676C3942.71 325.559 3938.67 338.332 3930.59 348.996C3922.62 359.543 3911.43 367.629 3897.01 373.254C3882.6 378.879 3865.84 381.691 3846.74 381.691ZM4018.12 454.816C4013.32 454.816 4008.28 454.406 4003.01 453.586C3997.85 452.766 3992.75 451.652 3987.71 450.246L3994.22 409.465C3996.56 409.934 3998.91 410.285 4001.25 410.52C4003.71 410.871 4006.05 411.047 4008.28 411.047C4015.66 411.047 4022.11 409.348 4027.62 405.949C4033.24 402.668 4037.11 397.746 4039.22 391.184L4042.21 381.867L3979.8 224.719L3955.37 221.203V187.805H4062.6V221.203L4039.22 224.719L4066.99 305.402L4069.1 311.555H4070.16L4103.03 224.367L4080.7 221.203V187.805H4179.49V221.203L4157.52 224.367L4085.62 406.125C4082.23 414.797 4077.71 422.824 4072.09 430.207C4066.46 437.59 4059.26 443.508 4050.47 447.961C4041.8 452.531 4031.02 454.816 4018.12 454.816ZM4276 381.691C4261.46 381.691 4247.87 380.344 4235.21 377.648C4222.68 374.953 4211.02 371.145 4200.23 366.223L4199.53 309.797H4238.03L4245.06 337.219C4248.34 338.977 4252.15 340.441 4256.48 341.613C4260.82 342.785 4265.86 343.371 4271.6 343.371C4282.38 343.371 4289.88 341.73 4294.1 338.449C4298.32 335.168 4300.43 331.125 4300.43 326.32C4300.43 321.633 4298.09 317.414 4293.4 313.664C4288.71 309.914 4279.16 306.691 4264.75 303.996C4242.36 299.426 4225.84 292.102 4215.18 282.023C4204.63 271.828 4199.36 258.938 4199.36 243.352C4199.36 232.805 4201.93 223.137 4207.09 214.348C4212.25 205.441 4220.33 198.293 4231.35 192.902C4242.48 187.395 4256.95 184.641 4274.77 184.641C4289.06 184.641 4302.42 185.988 4314.84 188.684C4327.27 191.262 4337.58 194.602 4345.78 198.703L4345.96 253.195H4307.64L4302.19 228.586C4299.26 226.477 4295.86 224.895 4291.99 223.84C4288.12 222.668 4283.79 222.082 4278.98 222.082C4270.55 222.082 4264.16 223.723 4259.82 227.004C4255.61 230.285 4253.5 234.445 4253.5 239.484C4253.5 242.414 4254.32 245.285 4255.96 248.098C4257.71 250.793 4261 253.371 4265.8 255.832C4270.61 258.176 4277.7 260.402 4287.07 262.512C4309.8 267.551 4326.56 274.465 4337.34 283.254C4348.24 292.043 4353.69 304.816 4353.69 321.574C4353.69 339.738 4347.13 354.328 4334 365.344C4320.88 376.242 4301.54 381.691 4276 381.691ZM4452.66 381.867C4433.91 381.867 4419.55 376.828 4409.59 366.75C4399.63 356.555 4394.65 340.441 4394.65 318.41V227.004H4369.69V187.805H4394.65V141.047H4450.55V187.805H4483.77V227.004H4450.55V318.234C4450.55 325.031 4452.01 329.895 4454.94 332.824C4457.99 335.637 4462.09 337.043 4467.25 337.043C4469.82 337.043 4472.46 336.867 4475.16 336.516C4477.85 336.164 4480.31 335.812 4482.54 335.461L4486.76 376.77C4481.48 378.293 4475.92 379.523 4470.06 380.461C4464.32 381.398 4458.52 381.867 4452.66 381.867ZM4592.75 381.691C4574.36 381.691 4558.3 377.707 4544.59 369.738C4530.88 361.652 4520.21 350.637 4512.6 336.691C4505.1 322.629 4501.35 306.691 4501.35 288.879V282.023C4501.35 263.039 4504.8 246.164 4511.72 231.398C4518.63 216.633 4528.59 205.09 4541.6 196.77C4554.61 188.332 4570.2 184.172 4588.36 184.289C4605.59 184.289 4620.12 187.629 4631.95 194.309C4643.79 200.988 4652.75 210.773 4658.85 223.664C4665.06 236.438 4668.16 252.023 4668.16 270.422V300.305H4559.71L4559.53 301.359C4560.23 308.625 4562.23 315.07 4565.51 320.695C4568.91 326.203 4573.54 330.598 4579.39 333.879C4585.37 337.16 4592.64 338.801 4601.19 338.801C4609.98 338.801 4618.3 337.746 4626.15 335.637C4634.12 333.527 4642.15 330.246 4650.23 325.793L4664.3 360.07C4656.09 366.281 4645.9 371.438 4633.71 375.539C4621.64 379.641 4607.99 381.691 4592.75 381.691ZM4559.88 264.27H4616.13V259.699C4616.13 252.434 4615.25 246.281 4613.5 241.242C4611.86 236.086 4609.04 232.16 4605.06 229.465C4601.19 226.77 4596.04 225.422 4589.59 225.422C4583.03 225.422 4577.64 227.062 4573.42 230.344C4569.2 233.625 4565.98 238.137 4563.75 243.879C4561.64 249.621 4560.18 256.125 4559.36 263.391L4559.88 264.27ZM4688.38 378V344.777L4712.11 339.328V226.652L4685.04 221.203V187.805H4764.67L4766.6 212.941C4772.81 203.918 4780.43 196.887 4789.45 191.848C4798.48 186.809 4808.96 184.289 4820.92 184.289C4832.87 184.289 4843.12 186.926 4851.68 192.199C4860.35 197.473 4866.91 205.441 4871.37 216.105C4877.11 206.027 4884.61 198.234 4893.87 192.727C4903.12 187.102 4913.96 184.289 4926.39 184.289C4945.02 184.289 4959.67 190.617 4970.33 203.273C4981 215.812 4986.33 235.09 4986.33 261.105V339.328L5010.06 344.777V378H4910.04V344.777L4930.25 339.328V260.93C4930.25 248.273 4928.2 239.602 4924.1 234.914C4920.12 230.109 4914.2 227.707 4906.35 227.707C4899.67 227.707 4893.87 229.406 4888.95 232.805C4884.02 236.086 4880.1 240.598 4877.17 246.34V339.328L4895.62 344.777V378H4802.81V344.777L4821.27 339.328V260.93C4821.27 248.508 4819.22 239.895 4815.12 235.09C4811.13 230.168 4805.16 227.707 4797.19 227.707C4790.86 227.707 4785.23 228.996 4780.31 231.574C4775.51 234.035 4771.46 237.668 4768.18 242.473V339.328L4788.4 344.777V378H4688.38Z" fill="#206BC4"/>
</svg>
