<svg width="1173" height="133" viewBox="0 0 1173 133" fill="none" xmlns="http://www.w3.org/2000/svg">
<g id="FMS Logo">
<path id="Union" fill-rule="evenodd" clip-rule="evenodd" d="M10.5381 88.7214C-2.46191 75.7217 -2.46191 54.6445 10.5381 41.6448L52.1836 0C65.1826 12.9998 65.1826 34.0767 52.1836 47.0767L10.5381 88.7214ZM301.833 27.6072V85.8262H288.38V27.6072H301.833ZM902.001 84.489C904.886 85.7478 908.138 86.3772 911.757 86.3772C915.533 86.3772 918.812 85.6428 921.591 84.1743C924.371 82.7056 926.469 80.7913 927.885 78.4309C929.301 76.0708 930.01 73.5532 930.01 70.8782C930.01 67.4165 929.223 64.6892 927.649 62.696C926.075 60.6506 924.188 59.1558 921.984 58.2117C919.781 57.2151 916.871 56.2185 913.252 55.2222C910.262 54.3828 907.928 53.6487 906.25 53.0193C904.624 52.3374 903.233 51.3669 902.08 50.1082C900.979 48.8494 900.428 47.2234 900.428 45.2305C900.428 42.4507 901.372 40.3 903.26 38.7791C905.148 37.2056 907.587 36.4189 910.577 36.4189C913.776 36.4189 916.347 37.2319 918.287 38.8579C920.228 40.4314 921.329 42.2671 921.591 44.365H929.459C929.039 40.1167 927.177 36.7073 923.873 34.1372C920.621 31.5674 916.425 30.2822 911.285 30.2822C907.718 30.2822 904.545 30.9116 901.766 32.1704C899.038 33.4292 896.914 35.2126 895.393 37.5203C893.871 39.8281 893.111 42.4768 893.111 45.4666C893.111 48.8757 893.871 51.603 895.393 53.6487C896.966 55.6416 898.828 57.1104 900.979 58.0544C903.182 58.9985 906.093 59.9426 909.711 60.8867C912.648 61.6733 914.982 62.4077 916.713 63.0896C918.444 63.7712 919.887 64.7678 921.04 66.0791C922.194 67.3904 922.771 69.095 922.771 71.1929C922.771 73.8679 921.774 76.0708 919.781 77.8018C917.841 79.48 915.166 80.3193 911.757 80.3193C908.19 80.3193 905.463 79.4539 903.575 77.7229C901.739 75.9397 900.69 73.7629 900.428 71.1929H892.796C892.849 74.1826 893.688 76.8313 895.313 79.1392C896.939 81.3945 899.169 83.1777 902.001 84.489ZM1034.71 48.6133V74.0251C1034.71 76.123 1035.16 77.6179 1036.05 78.5095C1036.94 79.3486 1038.49 79.7683 1040.69 79.7683H1045.96V85.8262H1039.51C1035.53 85.8262 1032.54 84.9084 1030.54 83.0725C1028.55 81.2368 1027.55 78.2209 1027.55 74.0251V48.6133H1021.97V42.7126H1027.55V31.8555H1034.71V42.7126H1045.96V48.6133H1034.71ZM1164.24 44.0503C1161.62 42.634 1158.63 41.926 1155.27 41.926C1151.86 41.926 1148.77 42.7651 1145.99 44.4436C1143.21 46.1221 1141.22 48.4822 1140.01 51.5244C1138.65 48.3774 1136.57 45.991 1133.79 44.365C1131.01 42.739 1127.81 41.926 1124.2 41.926C1121.31 41.926 1118.66 42.5293 1116.25 43.7356C1113.89 44.9419 1112 46.6726 1110.58 48.928V42.7129H1103.43V85.8264H1110.58V62.0667C1110.58 57.5559 1111.69 54.1206 1113.89 51.7603C1116.09 49.3477 1119.06 48.1414 1122.78 48.1414C1126.4 48.1414 1129.26 49.2952 1131.35 51.603C1133.5 53.8584 1134.58 57.1365 1134.58 61.4373V85.8264H1141.66V62.0667C1141.66 57.5559 1142.76 54.1206 1144.97 51.7603C1147.17 49.3477 1150.13 48.1414 1153.86 48.1414C1157.47 48.1414 1160.33 49.2952 1162.43 51.603C1164.58 53.8584 1165.66 57.1365 1165.66 61.4373V85.8264H1172.74V60.4146C1172.74 56.4285 1171.98 53.0454 1170.46 50.2656C1168.93 47.4856 1166.86 45.4138 1164.24 44.0503ZM1093.74 66.9443C1093.9 65.4233 1093.98 63.981 1093.98 62.6172C1093.98 58.6836 1093.11 55.1694 1091.38 52.075C1089.7 48.928 1087.29 46.4629 1084.14 44.6794C1080.99 42.8962 1077.38 42.0046 1073.28 42.0046C1069.09 42.0046 1065.36 42.9224 1062.11 44.7583C1058.91 46.5415 1056.42 49.1116 1054.64 52.4683C1052.85 55.8252 1051.96 59.7327 1051.96 64.1909C1051.96 68.6489 1052.88 72.5828 1054.72 75.9919C1056.55 79.3486 1059.07 81.9451 1062.27 83.7808C1065.52 85.6165 1069.19 86.5344 1073.28 86.5344C1078.42 86.5344 1082.72 85.2493 1086.19 82.6792C1089.65 80.0569 1091.96 76.6738 1093.11 72.5303H1085.4C1084.56 74.9429 1083.09 76.8835 1080.99 78.3523C1078.95 79.7683 1076.38 80.4763 1073.28 80.4763C1069.51 80.4763 1066.28 79.2964 1063.61 76.936C1060.98 74.5234 1059.54 71.1929 1059.28 66.9443H1093.74ZM1084.77 54.1204C1085.98 56.061 1086.58 58.395 1086.58 61.1226H1059.36C1059.73 57.0315 1061.17 53.832 1063.69 51.5242C1066.26 49.2163 1069.35 48.0625 1072.97 48.0625C1075.49 48.0625 1077.77 48.5869 1079.81 49.636C1081.91 50.6326 1083.56 52.1274 1084.77 54.1204ZM991.25 84.8821C993.872 85.9836 996.836 86.5344 1000.14 86.5344C1003.23 86.5344 1005.96 86.0098 1008.32 84.9609C1010.73 83.8594 1012.6 82.3645 1013.91 80.4763C1015.22 78.5881 1015.88 76.4641 1015.88 74.1038C1015.82 71.4812 1015.09 69.3572 1013.67 67.7312C1012.31 66.1052 1010.66 64.8989 1008.72 64.1121C1006.77 63.2729 1004.26 62.4338 1001.16 61.5945C998.697 60.9126 996.757 60.3096 995.341 59.7849C994.545 59.4482 993.82 59.0579 993.168 58.614C992.702 58.2974 992.272 57.9534 991.879 57.582C990.987 56.6379 990.542 55.458 990.542 54.0417C990.542 52.2585 991.302 50.8162 992.823 49.7146C994.345 48.6133 996.39 48.0625 998.96 48.0625C1001.74 48.0625 1003.94 48.7444 1005.57 50.1082C1007.25 51.4717 1008.17 53.2812 1008.32 55.5366H1015.48C1015.27 51.3406 1013.7 48.0364 1010.76 45.6235C1007.82 43.2109 1003.97 42.0046 999.196 42.0046C996.102 42.0046 993.348 42.5554 990.936 43.6567C988.522 44.7058 986.66 46.1482 985.35 47.9839C984.038 49.8196 983.383 51.8389 983.383 54.0417C983.383 56.8215 984.091 59.0769 985.507 60.8079C986.976 62.4861 988.706 63.7712 990.699 64.6628C992.744 65.502 995.367 66.3413 998.566 67.1804C1002.08 68.072 1004.68 68.99 1006.36 69.9341C1008.03 70.8257 1008.87 72.2156 1008.87 74.1038C1008.87 75.9395 1008.09 77.4604 1006.51 78.667C1004.94 79.8733 1002.79 80.4763 1000.06 80.4763C997.124 80.4763 994.737 79.7947 992.902 78.4309C991.119 77.0671 990.122 75.3101 989.912 73.1597H982.517C982.674 75.7822 983.514 78.1162 985.034 80.1616C986.556 82.1548 988.627 83.7283 991.25 84.8821ZM977.68 42.7126L951.718 106.124H944.322L952.819 85.3542L935.432 42.7126H943.378L956.91 77.644L970.285 42.7126H977.68ZM854.43 49.7935V73.7893C854.43 75.415 854.797 76.5952 855.531 77.3296C856.318 78.0115 857.63 78.3523 859.465 78.3523H864.973V85.8264H857.892C853.854 85.8264 850.759 84.8823 848.608 82.9941C846.458 81.106 845.383 78.0376 845.383 73.7893V49.7935H840.269V42.4768H845.383V31.6985H854.43V42.4768H864.973V49.7935H854.43ZM823.871 43.8931C821.196 42.4771 818.154 41.7688 814.744 41.7688C812.175 41.7688 809.735 42.2671 807.428 43.2637C805.173 44.2603 803.311 45.6501 801.842 47.4333V42.4771H792.873V85.8267H801.842V61.5947C801.842 57.7136 802.812 54.7502 804.753 52.7046C806.746 50.6067 809.421 49.5576 812.777 49.5576C816.135 49.5576 818.783 50.6067 820.724 52.7046C822.664 54.7502 823.635 57.7136 823.635 61.5947V85.8267H832.525V60.2573C832.525 56.3237 831.765 52.9668 830.243 50.187C828.723 47.4072 826.599 45.3093 823.871 43.8931ZM784.047 63.0896C784.047 64.7156 783.942 66.1841 783.732 67.4954H750.61C750.873 70.957 752.157 73.7368 754.466 75.835C756.773 77.9329 759.605 78.9819 762.962 78.9819C767.788 78.9819 771.197 76.9626 773.189 72.9238H782.867C781.556 76.9102 779.169 80.1882 775.707 82.7583C772.298 85.2759 768.05 86.5347 762.962 86.5347C758.818 86.5347 755.095 85.6167 751.79 83.781C748.539 81.8928 745.969 79.2703 744.08 75.9136C742.245 72.5044 741.327 68.5706 741.327 64.1123C741.327 59.6543 742.219 55.7466 744.002 52.3899C745.838 48.9807 748.381 46.3582 751.633 44.5225C754.938 42.6868 758.714 41.7688 762.962 41.7688C767.054 41.7688 770.698 42.6604 773.898 44.4438C777.098 46.2271 779.589 48.7446 781.372 51.9966C783.155 55.196 784.047 58.8936 784.047 63.0896ZM774.685 60.2573C774.632 56.9531 773.452 54.3044 771.145 52.3113C768.837 50.3181 765.979 49.3215 762.569 49.3215C759.475 49.3215 756.825 50.3181 754.623 52.3113C752.42 54.252 751.108 56.9006 750.689 60.2573H774.685ZM724.171 43.8931C721.496 42.4771 718.453 41.7688 715.044 41.7688C711.845 41.7688 708.855 42.5557 706.075 44.1292C703.296 45.6501 701.25 47.7219 699.938 50.3445C698.471 47.5645 696.372 45.4404 693.645 43.9717C690.918 42.5032 687.823 41.7688 684.361 41.7688C681.791 41.7688 679.379 42.2671 677.123 43.2637C674.868 44.2603 673.006 45.6501 671.537 47.4333V42.4771H662.568V85.8267H671.537V61.5947C671.537 57.7136 672.508 54.7502 674.448 52.7046C676.441 50.6067 679.116 49.5576 682.474 49.5576C685.83 49.5576 688.479 50.6067 690.419 52.7046C692.36 54.7502 693.33 57.7136 693.33 61.5947V85.8267H702.221V61.5947C702.221 57.7136 703.19 54.7502 705.132 52.7046C707.124 50.6067 709.8 49.5576 713.156 49.5576C716.513 49.5576 719.162 50.6067 721.103 52.7046C723.043 54.7502 724.014 57.7136 724.014 61.5947V85.8267H732.903V60.2573C732.903 56.3237 732.117 52.9668 730.543 50.187C729.022 47.4072 726.898 45.3093 724.171 43.8931ZM653.742 63.0896C653.742 64.7156 653.638 66.1841 653.428 67.4954H620.306C620.568 70.957 621.854 73.7368 624.161 75.835C626.469 77.9329 629.301 78.9819 632.657 78.9819C637.483 78.9819 640.893 76.9626 642.886 72.9238H652.562C651.251 76.9102 648.864 80.1882 645.403 82.7583C641.994 85.2759 637.745 86.5347 632.657 86.5347C628.515 86.5347 624.79 85.6167 621.486 83.781C618.234 81.8928 615.664 79.2703 613.775 75.9136C611.94 72.5044 611.022 68.5706 611.022 64.1123C611.022 59.6543 611.914 55.7466 613.697 52.3899C615.533 48.9807 618.077 46.3582 621.328 44.5225C624.633 42.6868 628.409 41.7688 632.657 41.7688C636.749 41.7688 640.394 42.6604 643.594 44.4438C646.793 46.2271 649.284 48.7446 651.067 51.9966C652.851 55.196 653.742 58.8936 653.742 63.0896ZM644.38 60.2573C644.328 56.9531 643.147 54.3044 640.84 52.3113C638.532 50.3181 635.674 49.3215 632.265 49.3215C629.17 49.3215 626.521 50.3181 624.318 52.3113C622.115 54.252 620.804 56.9006 620.385 60.2573H644.38ZM587.048 43.8145C584.478 42.4507 581.514 41.7688 578.157 41.7688C574.381 41.7688 570.919 42.7129 567.772 44.6011C564.678 46.4368 562.213 49.0332 560.377 52.3899C558.594 55.7466 557.702 59.6018 557.702 63.9551C557.702 68.3083 558.594 72.2158 560.377 75.6775C562.213 79.0867 564.678 81.7617 567.772 83.7024C570.919 85.5906 574.381 86.5347 578.157 86.5347C581.462 86.5347 584.398 85.8528 586.969 84.489C589.591 83.073 591.663 81.342 593.184 79.2966V86.5347C593.184 90.7307 592.057 93.9299 589.801 96.1328C587.598 98.3357 584.688 99.4373 581.068 99.4373C577.974 99.4373 575.299 98.7292 573.043 97.313C570.841 95.9492 569.398 94.1399 568.716 91.8845H559.826C560.351 96.605 562.554 100.329 566.435 103.056C570.316 105.836 575.193 107.226 581.068 107.226C585.474 107.226 589.25 106.334 592.397 104.551C595.597 102.768 598.035 100.303 599.714 97.1558C601.393 94.061 602.231 90.5208 602.231 86.5347V42.4771H593.184V48.771C591.716 46.7778 589.67 45.1257 587.048 43.8145ZM591.296 56.3237C592.555 58.5266 593.184 61.1228 593.184 64.1123C593.184 67.1021 592.555 69.7246 591.296 71.9797C590.09 74.1829 588.49 75.8611 586.497 77.0151C584.504 78.1689 582.354 78.7458 580.045 78.7458C577.79 78.7458 575.64 78.1689 573.594 77.0151C571.601 75.8086 569.975 74.0779 568.716 71.8225C567.51 69.5671 566.907 66.9446 566.907 63.9551C566.907 60.9653 567.51 58.3955 568.716 56.2449C569.975 54.042 571.601 52.3899 573.594 51.2886C575.587 50.1345 577.737 49.5576 580.045 49.5576C582.354 49.5576 584.504 50.1345 586.497 51.2886C588.49 52.4424 590.09 54.1208 591.296 56.3237ZM504.382 63.9551C504.382 59.6018 505.273 55.7466 507.057 52.3899C508.893 49.0332 511.357 46.4368 514.452 44.6011C517.599 42.7129 521.061 41.7688 524.837 41.7688C528.246 41.7688 531.209 42.4507 533.727 43.8145C536.297 45.1257 538.343 46.7778 539.863 48.771V42.4771H548.911V85.8267H539.863V79.3752C538.343 81.4209 536.271 83.1255 533.648 84.489C531.025 85.8528 528.036 86.5347 524.68 86.5347C520.955 86.5347 517.546 85.5906 514.452 83.7024C511.357 81.7617 508.893 79.0867 507.057 75.6775C505.273 72.2158 504.382 68.3083 504.382 63.9551ZM539.863 64.1123C539.863 61.1228 539.234 58.5266 537.976 56.3237C536.77 54.1208 535.169 52.4424 533.177 51.2886C531.184 50.1345 529.033 49.5576 526.725 49.5576C525.615 49.5576 524.542 49.6909 523.505 49.9578C523.356 49.9958 523.209 50.0369 523.062 50.0806L522.91 50.1272L522.765 50.1729C522.609 50.2234 522.454 50.2771 522.301 50.3337C521.898 50.4819 521.502 50.6511 521.111 50.8416C520.955 50.9177 520.8 50.9973 520.646 51.0803C520.521 51.1477 520.397 51.217 520.273 51.2886C518.28 52.3899 516.654 54.042 515.396 56.2449C514.189 58.3955 513.586 60.9653 513.586 63.9551C513.586 66.9446 514.189 69.5671 515.396 71.8225C516.654 74.0779 518.28 75.8086 520.273 77.0151C522.319 78.1689 524.47 78.7458 526.725 78.7458C529.033 78.7458 531.184 78.1689 533.177 77.0151C535.169 75.8611 536.77 74.1829 537.976 71.9797C539.234 69.7246 539.863 67.1021 539.863 64.1123ZM487.276 43.8931C484.602 42.4771 481.56 41.7688 478.15 41.7688C475.58 41.7688 473.142 42.2671 470.833 43.2637C468.578 44.2603 466.716 45.6501 465.247 47.4333V42.4771H456.278V85.8267H465.247V61.5947C465.247 57.7136 466.218 54.7502 468.158 52.7046C470.151 50.6067 472.826 49.5576 476.184 49.5576C479.54 49.5576 482.188 50.6067 484.129 52.7046C486.07 54.7502 487.04 57.7136 487.04 61.5947V85.8267H495.931V60.2573C495.931 56.3237 495.17 52.9668 493.649 50.187C492.128 47.4072 490.004 45.3093 487.276 43.8931ZM399.969 63.9551C399.969 59.6018 400.86 55.7466 402.644 52.3899C404.479 49.0332 406.944 46.4368 410.039 44.6011C413.187 42.7129 416.647 41.7688 420.424 41.7688C423.833 41.7688 426.797 42.4507 429.314 43.8145C431.885 45.1257 433.93 46.7778 435.451 48.771V42.4771H444.498V85.8267H435.451V79.3752C433.93 81.4209 431.858 83.1255 429.235 84.489C426.613 85.8528 423.624 86.5347 420.267 86.5347C416.543 86.5347 413.134 85.5906 410.039 83.7024C406.944 81.7617 404.479 79.0867 402.644 75.6775C400.86 72.2158 399.969 68.3083 399.969 63.9551ZM435.451 64.1123C435.451 61.1228 434.821 58.5266 433.562 56.3237C432.356 54.1208 430.757 52.4424 428.764 51.2886C426.771 50.1345 424.62 49.5576 422.312 49.5576C420.005 49.5576 417.854 50.1345 415.861 51.2886C413.868 52.3899 412.242 54.042 410.983 56.2449C409.777 58.3955 409.174 60.9653 409.174 63.9551C409.174 66.9446 409.777 69.5671 410.983 71.8225C412.242 74.0779 413.868 75.8086 415.861 77.0151C417.906 78.1689 420.057 78.7458 422.312 78.7458C424.62 78.7458 426.771 78.1689 428.764 77.0151C430.757 75.8611 432.356 74.1829 433.562 71.9797C434.821 69.7246 435.451 67.1021 435.451 64.1123ZM391.17 85.8262V31.1475H381.571L362.454 74.0251L343.257 31.1475H333.58V85.8262H342.549V48.3772L359.307 85.8262H365.522L382.201 48.3772V85.8262H391.17ZM281.048 67.1018C281.205 65.738 281.284 64.4268 281.284 63.168C281.284 58.7622 280.34 54.9072 278.451 51.6028C276.616 48.2986 274.046 45.7546 270.741 43.9714C267.438 42.1882 263.661 41.2966 259.412 41.2966C255.059 41.2966 251.204 42.2144 247.847 44.05C244.49 45.886 241.868 48.5083 239.979 51.9175C238.144 55.3269 237.227 59.313 237.227 63.8762C237.227 68.4392 238.17 72.4253 240.059 75.8347C241.946 79.2439 244.569 81.8662 247.926 83.7021C251.282 85.5378 255.111 86.4556 259.412 86.4556C262.979 86.4556 266.204 85.8 269.089 84.4888C271.974 83.1775 274.36 81.3682 276.249 79.0603C278.189 76.7524 279.526 74.1562 280.261 71.2715H265.942C264.631 74.1038 262.297 75.52 258.94 75.52C256.685 75.52 254.771 74.8118 253.197 73.3958C251.676 71.927 250.811 69.8291 250.601 67.1018H281.048ZM265.155 54.1204C266.729 55.4841 267.516 57.3198 267.516 59.6277H250.68C251.047 57.2151 251.99 55.353 253.512 54.0417C255.085 52.7305 257 52.075 259.255 52.075C261.615 52.075 263.582 52.7568 265.155 54.1204ZM230.236 41.926V85.8264H216.783V79.8472C215.42 81.7878 213.558 83.3613 211.197 84.5676C208.89 85.7214 206.319 86.2983 203.487 86.2983C200.131 86.2983 197.167 85.5642 194.597 84.0955C192.027 82.5745 190.034 80.3979 188.618 77.5654C187.201 74.7332 186.493 71.4028 186.493 67.574V41.926H199.868V65.7644C199.868 68.7017 200.629 70.9832 202.149 72.6091C203.671 74.2351 205.717 75.0479 208.286 75.0479C210.909 75.0479 212.98 74.2351 214.502 72.6091C216.022 70.9832 216.783 68.7017 216.783 65.7644V41.926H230.236ZM179.815 41.3755V30.5969H143.861V85.8264H157.314V63.4829H174.151V53.0193H157.314V41.3755H179.815ZM32.6758 85.9231C19.6758 98.9229 19.6758 120 32.6758 133L74.3213 91.355C87.3203 78.355 87.3203 57.2781 74.3213 44.2783L32.6758 85.9231Z" fill="#3769BE"/>
</g>
</svg>
